HIERARCHY
ROOT Bip001_Pelvis
{
  OFFSET 33.2923 95.8902 -28.781
  CHANNELS 6 Xposition Yposition Zposition Zrotation Xrotation Yrotation
  JOINT Bip001_Spine
  {
    OFFSET 1.4188e-005 10.2191 -0.0116013
    CHANNELS 3 Zrotation Xrotation Yrotation
    JOINT Bip001_L_Thigh
    {
      OFFSET 11.0458 -10.2192 0.0116197
      CHANNELS 3 Zrotation Xrotation Yrotation
      JOINT Bip001_L_Calf
      {
        OFFSET -0.707118 -44.0221 0.360014
        CHANNELS 3 Zrotation Xrotation Yrotation
        JOINT Bip001_L_Foot
        {
          OFFSET -0.651902 -40.5938 -3.56146
          CHANNELS 3 Zrotation Xrotation Yrotation
          JOINT Bip001_L_Toe0
          {
            OFFSET 0.0530839 -10.2181 13.1504
            CHANNELS 3 Zrotation Xrotation Yrotation
            End Site
            {
              OFFSET -1.02532e-005 0 7.55606
            }
          }
        }
      }
    }
    JOINT Bip001_R_Thigh
    {
      OFFSET -11.0458 -10.2191 0.0115893
      CHANNELS 3 Zrotation Xrotation Yrotation
      JOINT Bip001_R_Calf
      {
        OFFSET 0.706994 -44.0221 0.35984
        CHANNELS 3 Zrotation Xrotation Yrotation
        JOINT Bip001_R_Foot
        {
          OFFSET 0.651786 -40.5938 -3.5613
          CHANNELS 3 Zrotation Xrotation Yrotation
          JOINT Bip001_R_Toe0
          {
            OFFSET -0.0531479 -10.2181 13.1504
            CHANNELS 3 Zrotation Xrotation Yrotation
            End Site
            {
              OFFSET -1.02894e-005 0 7.55606
            }
          }
        }
      }
    }
    JOINT Bip001_Spine1
    {
      OFFSET 1.87041e-005 14.5736 1.08638
      CHANNELS 3 Zrotation Xrotation Yrotation
      JOINT Bip001_Spine2
      {
        OFFSET 2.24614e-005 14.5058 -1.69078
        CHANNELS 3 Zrotation Xrotation Yrotation
        JOINT Bip001_Neck
        {
          OFFSET 2.20278e-005 15.3945 -0.489414
          CHANNELS 3 Zrotation Xrotation Yrotation
          JOINT Bip001_L_Clavicle
          {
            OFFSET 6.06036 -0.000579998 0.00836775
            CHANNELS 3 Zrotation Xrotation Yrotation
            JOINT Bip001_L_UpperArm
            {
              OFFSET 11.5509 -0.0600302 0.00193952
              CHANNELS 3 Zrotation Xrotation Yrotation
              JOINT Bip001_L_Forearm
              {
                OFFSET 25.9523 0.0806089 -2.15551
                CHANNELS 3 Zrotation Xrotation Yrotation
                JOINT Bip001_L_Hand
                {
                  OFFSET 32.2476 0.153767 1.63968
                  CHANNELS 3 Zrotation Xrotation Yrotation
                  JOINT Bip001_L_Finger0
                  {
                    OFFSET 6.04639 -2.20976 5.90322
                    CHANNELS 3 Zrotation Xrotation Yrotation
                    End Site
                    {
                      OFFSET 4.22376 -1.43895 0.606486
                    }
                  }
                  JOINT Bip001_L_Finger1
                  {
                    OFFSET 11.0826 -0.704819 -0.198153
                    CHANNELS 3 Zrotation Xrotation Yrotation
                    End Site
                    {
                      OFFSET 6.20028 -0.397518 -0.0787166
                    }
                  }
                }
              }
            }
          }
          JOINT Bip001_R_Clavicle
          {
            OFFSET -6.06036 -0.000563197 0.00835105
            CHANNELS 3 Zrotation Xrotation Yrotation
            JOINT Bip001_R_UpperArm
            {
              OFFSET -11.5509 -0.0599978 0.00190698
              CHANNELS 3 Zrotation Xrotation Yrotation
              JOINT Bip001_R_Forearm
              {
                OFFSET -25.9523 0.080682 -2.1559
                CHANNELS 3 Zrotation Xrotation Yrotation
                JOINT Bip001_R_Hand
                {
                  OFFSET -32.2476 0.153858 1.63991
                  CHANNELS 3 Zrotation Xrotation Yrotation
                  JOINT Bip001_R_Finger0
                  {
                    OFFSET -6.04641 -2.20974 5.90321
                    CHANNELS 3 Zrotation Xrotation Yrotation
                    End Site
                    {
                      OFFSET -4.22376 -1.43894 0.606474
                    }
                  }
                  JOINT Bip001_R_Finger1
                  {
                    OFFSET -11.0826 -0.704789 -0.198184
                    CHANNELS 3 Zrotation Xrotation Yrotation
                    End Site
                    {
                      OFFSET -6.20028 -0.397501 -0.0787338
                    }
                  }
                }
              }
            }
          }
          JOINT Bip001_Head
          {
            OFFSET 1.09673e-005 11.2744 2.05948
            CHANNELS 3 Zrotation Xrotation Yrotation
            End Site
            {
              OFFSET 2.89576e-005 20.8808 -2.77728e-005
            }
          }
        }
      }
    }
  }
}
MOTION
Frames:	15
Frame Time:	0.04
32.0714 95.8486 -27.5917 0.949448 -0.807982 1.24998 -0.301403 2.69407 0.0676848 5.01528 -2.13601 6.84078 -0.439962 6.55422 -11.4747 2.6129 -3.22599 -0.0486142 -3.74282 -3.40448 5.52947 -3.27038 -3.00306 -0.828212 0.545617 11.2365 -0.500101 -5.79867 -10.644 1.96932 1.94881 -6.97815 2.45862 -0.609659 5.38139 0.150876 -0.609604 5.3814 0.150913 0.714468 0.282252 -3.08456 -24.1021 1.40423 -3.64338 -49.2763 38.495 -1.1366 11.9381 -0.249639 -26.2136 8.15271 0.927454 -2.21621 -3.18055e-015 0 6.36111e-015 -3.18055e-015 3.18056e-015 6.36111e-015 29.629 7.17902 15.2916 45.8098 30.029 -13.1775 -27.9392 5.06818 37.838 -29.98 -16.3303 24.051 3.18055e-015 -4.37326e-015 -0 -0 -7.95139e-016 -0 0.288796 16.4111 -2.83943 
32.0544 95.8587 -27.6257 0.981058 -0.839306 1.23969 -0.303401 2.69374 0.0594541 5.02974 -2.12698 6.71137 -0.460347 6.59078 -11.2247 2.28764 -3.4433 -0.0387233 -3.88073 -3.0584 5.65395 -3.29642 -3.01197 -1.73298 0.345751 11.314 -0.30704 -5.61653 -10.7502 2.66276 1.94535 -6.95539 2.45076 -0.610575 5.36549 0.133365 -0.610577 5.36551 0.133367 0.186977 -0.0452985 -2.72874 -23.4428 1.90423 -3.95943 -49.3516 38.4696 -1.32087 12.0346 -0.204445 -26.2934 7.99571 0.869982 -2.28288 1.76556e-031 -3.18055e-015 3.18055e-015 -3.18055e-015 0 3.18055e-015 29.9192 7.37257 15.1329 44.2821 26.4012 -10.9736 -29.7049 4.30665 43.9772 -35.4862 -17.43 24.9678 -1.59028e-015 7.05685e-015 7.95139e-016 -3.18055e-015 4.82053e-015 1.19271e-015 0.661831 16.3223 -2.78359 
32.0944 95.8542 -27.6347 1.15236 -0.93834 1.17896 -0.33971 2.68652 0.0702329 4.79071 -1.88442 7.02647 -0.308786 6.29669 -11.5075 2.30365 -3.25301 -0.0469159 -3.84741 -3.12661 5.6287 -3.49271 -3.06642 -2.07817 0.311282 11.62 -0.220035 -5.54012 -10.9307 2.96743 1.9438 -6.95442 2.44904 -0.683859 5.37256 0.156481 -0.683861 5.37258 0.156482 -0.205971 -0.584289 -2.44058 -23.0981 2.54187 -4.04103 -49.1035 38.7736 -1.52329 11.9193 -0.574707 -26.4226 8.16402 1.01667 -2.24415 -3.18055e-015 -6.36111e-015 1.59028e-015 0 0 -1.59028e-015 30.0666 7.79781 15.0019 42.6156 22.9946 -7.95982 -32.3614 4.52868 50.2691 -40.0982 -18.7218 26.3028 1.19271e-015 -6.55989e-015 1.59028e-015 2.38542e-015 -5.91385e-015 3.18055e-015 0.857835 16.4365 -2.68725 
32.0296 95.8587 -27.7222 1.06901 -0.89882 1.35753 -0.329169 2.66705 0.0586614 4.97333 -2.14619 6.87302 -0.359508 6.63481 -11.5309 1.84438 -3.69817 -0.0199571 -4.15409 -2.75239 5.91331 -3.32731 -3.07597 -0.967133 0.512361 11.491 -0.446578 -5.81826 -10.6946 1.97508 1.93995 -6.93085 2.43519 -0.656655 5.33371 0.130952 -0.656657 5.33371 0.130964 -0.691436 -1.09201 -2.13245 -22.6305 3.17293 -4.20431 -48.8551 38.8777 -1.79384 11.9753 -0.568063 -26.483 8.20337 0.915458 -2.23143 -3.18055e-015 0 -1.59028e-015 -3.18055e-015 0 1.59028e-015 30.4209 8.24473 14.9714 40.7557 19.4185 -4.22881 -34.4449 4.55097 56.4466 -44.3656 -19.9451 27.3541 0 1.59028e-015 -0 -7.95139e-016 -1.98785e-015 -0 1.35683 16.3669 -2.70276 
32.0302 95.8623 -27.6955 1.10197 -1.16573 1.49454 -0.327391 2.70477 0.060938 4.94966 -1.95298 6.964 -0.258209 6.73441 -11.6924 1.3698 -4.15092 -0.00846827 -4.38886 -2.31884 6.19182 -3.36932 -2.77092 -1.39643 0.475462 11.4485 -0.275996 -5.79212 -10.745 2.14244 1.9363 -6.92599 2.41616 -0.658603 5.40916 0.131693 -0.65847 5.40916 0.131754 -1.38698 -1.65405 -1.77229 -21.9737 3.8471 -4.29258 -48.6602 38.6648 -2.10778 12.0395 -0.288885 -26.4607 8.54048 0.581905 -2.46735 -3.53112e-031 -6.36111e-015 -3.18055e-015 -3.18055e-015 -3.18056e-015 -0 30.9609 8.80986 15.1619 38.9232 15.8754 0.0999452 -35.9899 4.6549 61.8138 -48.8683 -21.3345 28.0411 4.77083e-015 -6.36111e-015 6.36111e-015 1.59028e-015 -3.97569e-015 3.18055e-015 2.12806 16.2862 -2.81808 
31.9258 95.8624 -27.7438 0.945178 -1.18147 1.66575 -0.291613 2.68913 0.0682939 5.24843 -2.14842 6.89592 -0.353437 7.09218 -11.7568 0.781854 -4.6393 0.0066711 -4.6889 -1.97679 6.43296 -3.12687 -2.69316 -1.38709 0.428547 11.3232 -0.126588 -5.92002 -10.6103 1.83664 1.93596 -6.93702 2.41955 -0.587527 5.37786 0.150964 -0.587213 5.37787 0.150729 -1.96907 -2.17447 -1.46364 -21.4405 4.44809 -4.32546 -48.5142 38.3486 -2.39258 12.0586 0.103787 -26.5148 8.82299 0.897305 -2.26115 3.53112e-031 6.36111e-015 -3.18055e-015 3.53113e-031 6.36111e-015 -3.18055e-015 31.1168 9.4241 15.7693 37.5602 12.4472 4.74305 -36.9869 4.86721 66.0323 -54.5203 -21.6425 28.054 3.18055e-015 -3.18055e-015 -6.36111e-015 3.18055e-015 -1.59028e-015 -3.18055e-015 2.82762 16.1062 -2.91802 
31.9309 95.8407 -27.775 1.01739 -1.1241 1.8923 -0.292699 2.66611 0.0879471 5.00597 -2.09773 6.69001 -0.345467 6.61797 -12.1115 3.03064 -2.72876 -0.0801559 -3.62669 -3.63721 5.4281 -3.23626 -2.81946 -1.66233 0.473917 11.5787 -0.0542787 -5.92351 -10.7555 1.79239 1.92961 -6.88548 2.3965 -0.59084 5.33172 0.19051 -0.590382 5.33172 0.190182 -2.82679 -2.81599 -1.12245 -20.6508 5.20279 -4.43606 -48.4122 38.2338 -2.5955 11.7904 -0.333479 -26.6081 8.97649 1.38772 -2.22924 -3.18055e-015 0 3.18055e-015 -3.18055e-015 0 6.36111e-015 31.2625 10.0645 16.3214 36.9364 8.97317 9.52967 -38.535 5.50261 69.8163 -58.5925 -22.0757 28.0127 3.18055e-015 1.27222e-014 3.18055e-015 -3.18055e-015 9.54167e-015 3.18055e-015 4.01212 15.9544 -3.22365 
31.9818 95.84 -27.7555 1.24021 -1.14504 1.98272 -0.33505 2.65362 0.139834 4.71619 -1.94841 7.09951 -0.115618 6.38387 -12.6621 2.37817 -3.02331 -0.0413381 -3.87077 -3.37885 5.67665 -3.4998 -2.84838 -1.89671 0.530266 11.8154 0.000425027 -5.91942 -10.906 1.83901 1.92656 -6.87122 2.39437 -0.677447 5.30617 0.29487 -0.6776 5.30619 0.295175 -3.619 -3.45716 -0.859698 -19.9147 5.89929 -4.40456 -48.3273 38.3343 -2.72013 12.305 0.416582 -26.5967 8.62475 0.589895 -2.59979 3.18055e-015 9.54166e-015 -3.18055e-015 7.06225e-031 1.27222e-014 -3.18055e-015 31.3176 10.8468 17.3025 36.3922 5.77971 14.0124 -40.5053 6.46182 72.5438 -63.835 -21.5725 27.5541 -9.54166e-015 -3.18055e-015 -0 -4.77083e-015 3.18056e-015 3.18055e-015 5.19689 15.8543 -3.57833 
31.8813 95.8528 -27.8598 0.965243 -0.995111 2.54824 -0.269654 2.59472 0.119984 5.09515 -2.48511 6.64922 -0.183541 6.94869 -12.6624 1.99587 -3.47507 -0.0265687 -4.10258 -3.00527 5.84006 -3.14435 -2.73532 -1.92545 0.483927 11.4083 -0.157357 -6.01986 -10.6434 1.55416 1.9223 -6.86813 2.3705 -0.545772 5.18884 0.249279 -0.545466 5.18886 0.248778 -4.25041 -4.15716 -0.740774 -19.353 6.57883 -4.16415 -48.286 38.3184 -2.84574 11.7984 -0.848355 -26.8022 7.52305 0.970023 -2.21203 3.18055e-015 3.18055e-015 3.18055e-015 -1.76556e-031 3.18056e-015 3.18055e-015 31.218 11.7418 18.3939 35.9841 3.30753 18.2761 -43.1051 7.56054 73.6912 -69.226 -20.5929 26.812 -1.59028e-015 9.54166e-015 -1.59028e-015 3.53113e-031 6.36111e-015 -3.18055e-015 6.03796 15.8974 -3.89995 
31.8006 95.8465 -27.9045 0.801806 -0.905784 2.96359 -0.217433 2.55532 0.1258 5.21644 -2.65103 6.38791 -0.298904 6.86764 -12.9686 3.6089 -2.28278 -0.106467 -3.29467 -4.06407 5.1839 -2.92575 -2.68632 -1.87079 0.461878 11.2567 -0.388185 -6.06664 -10.5277 1.37229 1.92336 -6.85683 2.3439 -0.440755 5.11015 0.256047 -0.440787 5.11015 0.256321 -4.93904 -4.90848 -0.741823 -18.8348 7.2652 -3.76497 -48.2428 38.357 -2.96846 11.9132 -0.440212 -26.741 7.62621 0.899947 -2.35665 -3.18055e-015 -1.27222e-014 3.18055e-015 -3.18055e-015 -1.27222e-014 6.36111e-015 30.5515 12.6484 19.78 36.1557 1.9284 21.8665 -45.4822 8.49458 73.4331 -77.2285 -18.6879 25.5175 3.97569e-016 0 -0 2.78299e-015 6.36111e-015 -0 6.69541 16.0944 -4.28673 
31.6965 95.8492 -27.9149 0.63978 -0.850936 3.38749 -0.173106 2.52961 0.138394 5.51778 -2.91541 6.16095 -0.429255 7.16031 -13.1046 3.13849 -2.65394 -0.0792692 -3.4794 -3.83867 5.29405 -2.68439 -2.47952 -1.93966 0.434009 10.8752 -0.524747 -6.13882 -10.3838 1.16086 1.92814 -6.83611 2.346 -0.354678 5.05878 0.285118 -0.353784 5.0588 0.285069 -5.57167 -5.56781 -0.871685 -18.4111 7.83695 -3.31633 -48.1467 38.2139 -3.05965 11.7344 -0.560999 -26.7795 7.44126 1.09446 -2.26669 -6.36111e-015 0 -3.18055e-015 -3.18055e-015 0 -3.18055e-015 29.7949 13.4433 21.1386 36.4613 1.19667 25.024 -47.9135 9.53909 71.389 -83.2591 -18.9459 24.7729 -3.97569e-016 3.18055e-015 2.38542e-015 -3.97569e-016 0 7.95139e-016 7.43671 16.2441 -4.80402 
31.6176 95.8465 -27.9382 0.567037 -0.742586 3.74733 -0.166171 2.51027 0.172884 5.66329 -3.17194 5.95873 -0.508977 7.27934 -13.349 3.39196 -2.46687 -0.0881259 -3.40117 -4.03398 5.21836 -2.53819 -2.46242 -1.99984 0.444853 10.7313 -0.679802 -6.19786 -10.3244 0.949802 1.93249 -6.84539 2.34729 -0.339404 5.01771 0.353418 -0.339443 5.0177 0.353413 -6.1603 -6.46059 -1.07556 -17.9077 8.57453 -2.64078 -48.0361 38.2212 -3.2186 11.994 0.30261 -26.6398 7.50874 0.796111 -2.3546 7.06225e-031 -6.36111e-015 6.36111e-015 7.06225e-031 -1.27222e-014 3.18055e-015 29.195 14.4166 22.2031 36.682 0.736737 27.6127 -48.9578 10.0787 68.5669 -83.9936 -19.0784 25.2889 4.41391e-032 -3.18055e-015 7.95139e-016 -1.59028e-015 0 -7.95139e-016 8.36333 16.6477 -5.44331 
31.5208 95.8503 -27.9317 0.432721 -0.750951 4.12223 -0.147217 2.49557 0.18495 5.89811 -3.33713 5.91897 -0.542268 7.50748 -13.6079 3.19283 -2.67203 -0.0839004 -3.44692 -3.88343 5.26175 -2.31573 -2.23703 -2.03358 0.452592 10.3985 -0.769552 -6.23437 -10.1578 0.696695 1.93466 -6.88223 2.35337 -0.303315 4.99067 0.377432 -0.303107 4.99068 0.377193 -6.49544 -6.71432 -1.30419 -17.6005 8.7113 -2.20284 -48.2078 38.2656 -3.16182 11.9149 0.0791992 -26.4469 7.70537 0.975947 -2.19186 1.76556e-031 -3.18055e-015 3.18055e-015 3.18055e-015 -3.18056e-015 -0 28.2815 14.8116 23.6006 35.5448 1.83282 29.8378 -47.8648 8.9374 63.4439 -85.5089 -20.1101 24.2351 7.95139e-016 -3.18055e-015 -2.38542e-015 7.95139e-016 6.36111e-015 -2.38542e-015 9.01516 16.5957 -5.95456 
31.4331 95.8528 -27.9379 0.430503 -0.665004 4.42804 -0.147645 2.46424 0.188862 5.97377 -3.50129 6.13514 -0.52301 7.59038 -14.1021 3.17253 -2.6804 -0.0834404 -3.45726 -3.8396 5.29282 -2.22467 -2.19762 -1.96722 0.46824 10.2808 -0.829565 -6.31733 -10.1037 0.366053 1.93474 -6.88759 2.37339 -0.304087 4.92721 0.385849 -0.304022 4.92722 0.385156 -7.24502 -6.86877 -1.44714 -17.0702 8.80239 -1.87268 -48.1837 38.2164 -3.08345 11.8816 0.263317 -26.1992 7.69676 1.02638 -2.16802 6.36111e-015 0 3.18055e-015 6.36111e-015 0 3.18055e-015 28.1777 14.9982 24.2601 38.3942 -0.478936 31.7773 -47.0482 10.05 59.9844 -87.3787 -23.5854 24.1785 -7.95139e-016 3.18055e-015 -7.95139e-016 -7.95139e-016 0 -0 10.2513 16.3835 -6.66817 
31.4388 95.8484 -27.995 0.457749 -0.520732 4.53905 -0.181113 2.45128 0.192536 5.92969 -3.67945 5.72407 -0.535862 7.52556 -13.9397 3.36731 -2.39839 -0.083801 -3.43922 -4.06214 5.27625 -2.25658 -2.41367 -1.74506 0.580235 10.4194 -0.895734 -6.40462 -10.1153 0.117702 1.92592 -6.85117 2.33864 -0.368818 4.90191 0.393611 -0.36985 4.90191 0.392483 -7.46276 -6.97131 -1.69912 -16.8049 8.84629 -1.65738 -48.2397 38.0584 -2.91632 11.9237 0.504073 -26.0521 7.6331 1.02309 -2.01567 -9.54166e-015 0 -0 -9.54166e-015 0 -0 28.2685 14.846 23.4471 42.5915 -5.99847 30.1825 -44.5333 9.22676 63.9157 -80.4387 -23.3623 25.3845 1.19271e-015 3.18055e-015 -3.97569e-016 7.95139e-016 3.18056e-015 -7.95139e-016 11.0412 15.9068 -7.20881 
